<svg height="512" viewBox="0 0 64 64" width="512" xmlns="http://www.w3.org/2000/svg"><path d="m3 14h58v40h-58z" fill="#ff5023"/><path d="m57 10v40h-21a4 4 0 0 0 -4 4v-40a4 4 0 0 1 4-4z" fill="#ffdaaa"/><path d="m32 14v40a4 4 0 0 0 -4-4h-21v-40h21a4 4 0 0 1 4 4z" fill="#ffb655"/><rect fill="#898890" height="28" rx="2" width="24" x="3" y="32"/><path d="m20 52h4v4h-4z" fill="#c2fb3b"/><path d="m20 45h4v4h-4z" fill="#c2fb3b"/><path d="m6 35h18v6h-18z" fill="#bdfdff"/><path d="m12 35h-6v6a6 6 0 0 1 6-6z" fill="#fff"/><g fill="#c2fb3b"><path d="m13 52h4v4h-4z"/><path d="m13 45h4v4h-4z"/><path d="m6 52h4v4h-4z"/><path d="m6 45h4v4h-4z"/></g><path d="m44 8h6v4h-6z" fill="#a7adf0"/><path d="m50 7v1h-6v-1a3 3 0 0 1 6 0z" fill="#57565c"/><path d="m49.68 36-2.68 6-2.68-6z" fill="#57565c"/><path d="m50 12v23.29l-.32.71h-5.36l-.32-.71v-23.29z" fill="#d80027"/><path d="m46 12h2v24h-2z" fill="#e03352"/></svg>